<mxfile host="65bd71144e">
    <diagram id="lcVel3PJUO96VYhKsWNE" name="Page-1">
        <mxGraphModel dx="832" dy="563" grid="1" gridSize="10" guides="1" tooltips="1" connect="1" arrows="1" fold="1" page="1" pageScale="1" pageWidth="850" pageHeight="1100" background="none" math="0" shadow="0">
            <root>
                <mxCell id="0"/>
                <mxCell id="1" parent="0"/>
                <mxCell id="6" value="Sistema  Academico" style="swimlane;fontStyle=1;align=center;verticalAlign=top;childLayout=stackLayout;horizontal=1;startSize=26;horizontalStack=0;resizeParent=1;resizeParentMax=0;resizeLast=0;collapsible=1;marginBottom=0;" parent="1" vertex="1">
                    <mxGeometry x="590" y="260" width="180" height="210" as="geometry"/>
                </mxCell>
                <mxCell id="7" value="+ id : int&#10;+Descripcion: String&#10;+Fecha_Creacion: date&#10;+active: String&#10;" style="text;strokeColor=none;fillColor=none;align=left;verticalAlign=top;spacingLeft=4;spacingRight=4;overflow=hidden;rotatable=0;points=[[0,0.5],[1,0.5]];portConstraint=eastwest;" parent="6" vertex="1">
                    <mxGeometry y="26" width="180" height="74" as="geometry"/>
                </mxCell>
                <mxCell id="8" value="" style="line;strokeWidth=1;fillColor=none;align=left;verticalAlign=middle;spacingTop=-1;spacingLeft=3;spacingRight=3;rotatable=0;labelPosition=right;points=[];portConstraint=eastwest;strokeColor=inherit;" parent="6" vertex="1">
                    <mxGeometry y="100" width="180" height="8" as="geometry"/>
                </mxCell>
                <mxCell id="9" value="+ Gestion periodo ()&#10;+ Nivel ()&#10;+ asignaturas ()&#10;+ Profesores ()  &#10;+ Estudiante ()&#10;- Notas ()&#10;" style="text;strokeColor=none;fillColor=none;align=left;verticalAlign=top;spacingLeft=4;spacingRight=4;overflow=hidden;rotatable=0;points=[[0,0.5],[1,0.5]];portConstraint=eastwest;" parent="6" vertex="1">
                    <mxGeometry y="108" width="180" height="102" as="geometry"/>
                </mxCell>
                <mxCell id="11" value="Nota" style="swimlane;fontStyle=1;align=center;verticalAlign=top;childLayout=stackLayout;horizontal=1;startSize=26;horizontalStack=0;resizeParent=1;resizeParentMax=0;resizeLast=0;collapsible=1;marginBottom=0;" parent="1" vertex="1">
                    <mxGeometry x="300" y="440" width="160" height="180" as="geometry"/>
                </mxCell>
                <mxCell id="12" value="+ id : int &#10;+estudiante_id:int&#10;+asignatura_id:int&#10;+calificacion:float" style="text;strokeColor=none;fillColor=none;align=left;verticalAlign=top;spacingLeft=4;spacingRight=4;overflow=hidden;rotatable=0;points=[[0,0.5],[1,0.5]];portConstraint=eastwest;" parent="11" vertex="1">
                    <mxGeometry y="26" width="160" height="74" as="geometry"/>
                </mxCell>
                <mxCell id="13" value="" style="line;strokeWidth=1;fillColor=none;align=left;verticalAlign=middle;spacingTop=-1;spacingLeft=3;spacingRight=3;rotatable=0;labelPosition=right;points=[];portConstraint=eastwest;strokeColor=inherit;" parent="11" vertex="1">
                    <mxGeometry y="100" width="160" height="8" as="geometry"/>
                </mxCell>
                <mxCell id="14" value="+ agregar()&#10;+consultar()&#10;+actualizar()&#10;+eliminar()" style="text;strokeColor=none;fillColor=none;align=left;verticalAlign=top;spacingLeft=4;spacingRight=4;overflow=hidden;rotatable=0;points=[[0,0.5],[1,0.5]];portConstraint=eastwest;" parent="11" vertex="1">
                    <mxGeometry y="108" width="160" height="72" as="geometry"/>
                </mxCell>
                <mxCell id="15" value="Estudiante" style="swimlane;fontStyle=1;align=center;verticalAlign=top;childLayout=stackLayout;horizontal=1;startSize=26;horizontalStack=0;resizeParent=1;resizeParentMax=0;resizeLast=0;collapsible=1;marginBottom=0;" parent="1" vertex="1">
                    <mxGeometry x="20" y="80" width="160" height="170" as="geometry"/>
                </mxCell>
                <mxCell id="16" value="+ id : int&#10;+Nombre: String&#10;+Apellido: String&#10;+cursos: List" style="text;strokeColor=none;fillColor=none;align=left;verticalAlign=top;spacingLeft=4;spacingRight=4;overflow=hidden;rotatable=0;points=[[0,0.5],[1,0.5]];portConstraint=eastwest;" parent="15" vertex="1">
                    <mxGeometry y="26" width="160" height="64" as="geometry"/>
                </mxCell>
                <mxCell id="17" value="" style="line;strokeWidth=1;fillColor=none;align=left;verticalAlign=middle;spacingTop=-1;spacingLeft=3;spacingRight=3;rotatable=0;labelPosition=right;points=[];portConstraint=eastwest;strokeColor=inherit;" parent="15" vertex="1">
                    <mxGeometry y="90" width="160" height="8" as="geometry"/>
                </mxCell>
                <mxCell id="18" value="+ Crear_estudiante()&#10;- actualizar_estudiante()&#10;+ consultar_estudiante()&#10;+ retirar_asignatura()" style="text;strokeColor=none;fillColor=none;align=left;verticalAlign=top;spacingLeft=4;spacingRight=4;overflow=hidden;rotatable=0;points=[[0,0.5],[1,0.5]];portConstraint=eastwest;" parent="15" vertex="1">
                    <mxGeometry y="98" width="160" height="72" as="geometry"/>
                </mxCell>
                <mxCell id="19" value="Asignatura" style="swimlane;fontStyle=1;align=center;verticalAlign=top;childLayout=stackLayout;horizontal=1;startSize=26;horizontalStack=0;resizeParent=1;resizeParentMax=0;resizeLast=0;collapsible=1;marginBottom=0;" parent="1" vertex="1">
                    <mxGeometry x="20" y="310" width="160" height="160" as="geometry"/>
                </mxCell>
                <mxCell id="20" value="+ id : int&#10;+Nombre: String&#10;+Creditos:int&#10;+Profesor: String&#10;" style="text;strokeColor=none;fillColor=none;align=left;verticalAlign=top;spacingLeft=4;spacingRight=4;overflow=hidden;rotatable=0;points=[[0,0.5],[1,0.5]];portConstraint=eastwest;" parent="19" vertex="1">
                    <mxGeometry y="26" width="160" height="64" as="geometry"/>
                </mxCell>
                <mxCell id="21" value="" style="line;strokeWidth=1;fillColor=none;align=left;verticalAlign=middle;spacingTop=-1;spacingLeft=3;spacingRight=3;rotatable=0;labelPosition=right;points=[];portConstraint=eastwest;strokeColor=inherit;" parent="19" vertex="1">
                    <mxGeometry y="90" width="160" height="8" as="geometry"/>
                </mxCell>
                <mxCell id="22" value="+ crear()&#10;+actualizar()&#10;+eliminar()&#10;+consultar()" style="text;strokeColor=none;fillColor=none;align=left;verticalAlign=top;spacingLeft=4;spacingRight=4;overflow=hidden;rotatable=0;points=[[0,0.5],[1,0.5]];portConstraint=eastwest;" parent="19" vertex="1">
                    <mxGeometry y="98" width="160" height="62" as="geometry"/>
                </mxCell>
                <mxCell id="23" value="Profesor" style="swimlane;fontStyle=1;align=center;verticalAlign=top;childLayout=stackLayout;horizontal=1;startSize=26;horizontalStack=0;resizeParent=1;resizeParentMax=0;resizeLast=0;collapsible=1;marginBottom=0;" parent="1" vertex="1">
                    <mxGeometry x="290" y="220" width="180" height="136" as="geometry"/>
                </mxCell>
                <mxCell id="24" value="+ profesor: string" style="text;strokeColor=none;fillColor=none;align=left;verticalAlign=top;spacingLeft=4;spacingRight=4;overflow=hidden;rotatable=0;points=[[0,0.5],[1,0.5]];portConstraint=eastwest;" parent="23" vertex="1">
                    <mxGeometry y="26" width="180" height="34" as="geometry"/>
                </mxCell>
                <mxCell id="25" value="" style="line;strokeWidth=1;fillColor=none;align=left;verticalAlign=middle;spacingTop=-1;spacingLeft=3;spacingRight=3;rotatable=0;labelPosition=right;points=[];portConstraint=eastwest;strokeColor=inherit;" parent="23" vertex="1">
                    <mxGeometry y="60" width="180" height="8" as="geometry"/>
                </mxCell>
                <mxCell id="26" value="+ consultar_nivel ()&#10;+ registrar_nota ()&#10;+ registrar_asistencia ()" style="text;strokeColor=none;fillColor=none;align=left;verticalAlign=top;spacingLeft=4;spacingRight=4;overflow=hidden;rotatable=0;points=[[0,0.5],[1,0.5]];portConstraint=eastwest;" parent="23" vertex="1">
                    <mxGeometry y="68" width="180" height="68" as="geometry"/>
                </mxCell>
                <mxCell id="27" value="" style="endArrow=none;html=1;entryX=-0.017;entryY=0.069;entryDx=0;entryDy=0;entryPerimeter=0;exitX=1;exitY=0.5;exitDx=0;exitDy=0;" parent="1" source="38" target="57" edge="1">
                    <mxGeometry width="50" height="50" relative="1" as="geometry">
                        <mxPoint x="510" y="260" as="sourcePoint"/>
                        <mxPoint x="590" y="260" as="targetPoint"/>
                    </mxGeometry>
                </mxCell>
                <mxCell id="34" value="" style="endArrow=none;html=1;entryX=-0.01;entryY=0.371;entryDx=0;entryDy=0;exitX=1.003;exitY=0.281;exitDx=0;exitDy=0;exitPerimeter=0;entryPerimeter=0;" parent="1" source="16" target="64" edge="1">
                    <mxGeometry width="50" height="50" relative="1" as="geometry">
                        <mxPoint x="190" y="160" as="sourcePoint"/>
                        <mxPoint x="420" y="380" as="targetPoint"/>
                        <Array as="points"/>
                    </mxGeometry>
                </mxCell>
                <mxCell id="56" value="Gestion periodo" style="swimlane;fontStyle=1;align=center;verticalAlign=top;childLayout=stackLayout;horizontal=1;startSize=26;horizontalStack=0;resizeParent=1;resizeParentMax=0;resizeLast=0;collapsible=1;marginBottom=0;" parent="1" vertex="1">
                    <mxGeometry x="570" y="40" width="160" height="168" as="geometry"/>
                </mxCell>
                <mxCell id="57" value="+ id: int&#10;+ nombre: string&#10;+ F/ inicio: date&#10;+ F/ fin: date " style="text;strokeColor=none;fillColor=none;align=left;verticalAlign=top;spacingLeft=4;spacingRight=4;overflow=hidden;rotatable=0;points=[[0,0.5],[1,0.5]];portConstraint=eastwest;" parent="56" vertex="1">
                    <mxGeometry y="26" width="160" height="64" as="geometry"/>
                </mxCell>
                <mxCell id="58" value="" style="line;strokeWidth=1;fillColor=none;align=left;verticalAlign=middle;spacingTop=-1;spacingLeft=3;spacingRight=3;rotatable=0;labelPosition=right;points=[];portConstraint=eastwest;strokeColor=inherit;" parent="56" vertex="1">
                    <mxGeometry y="90" width="160" height="8" as="geometry"/>
                </mxCell>
                <mxCell id="59" value="+ crear ()&#10;+ actualizar ()&#10;+ eliminar ()&#10;+ consultar ()&#10;" style="text;strokeColor=none;fillColor=none;align=left;verticalAlign=top;spacingLeft=4;spacingRight=4;overflow=hidden;rotatable=0;points=[[0,0.5],[1,0.5]];portConstraint=eastwest;" parent="56" vertex="1">
                    <mxGeometry y="98" width="160" height="70" as="geometry"/>
                </mxCell>
                <mxCell id="61" value="Nivel" style="swimlane;fontStyle=1;align=center;verticalAlign=top;childLayout=stackLayout;horizontal=1;startSize=26;horizontalStack=0;resizeParent=1;resizeParentMax=0;resizeLast=0;collapsible=1;marginBottom=0;" parent="1" vertex="1">
                    <mxGeometry x="300" y="20" width="160" height="140" as="geometry"/>
                </mxCell>
                <mxCell id="38" value="+ id : int&lt;br&gt;+ nombre: string&lt;br&gt;+ estado : string&lt;br&gt;&amp;nbsp;" style="text;strokeColor=none;fillColor=none;align=left;verticalAlign=middle;spacingLeft=4;spacingRight=4;overflow=hidden;points=[[0,0.5],[1,0.5]];portConstraint=eastwest;rotatable=0;whiteSpace=wrap;html=1;" parent="61" vertex="1">
                    <mxGeometry y="26" width="160" height="50" as="geometry"/>
                </mxCell>
                <mxCell id="63" value="" style="line;strokeWidth=1;fillColor=none;align=left;verticalAlign=middle;spacingTop=-1;spacingLeft=3;spacingRight=3;rotatable=0;labelPosition=right;points=[];portConstraint=eastwest;strokeColor=inherit;" parent="61" vertex="1">
                    <mxGeometry y="76" width="160" height="8" as="geometry"/>
                </mxCell>
                <mxCell id="64" value="+ crear ()&#10;+ eliminar ()&#10;+ consultar ()&#10;" style="text;strokeColor=none;fillColor=none;align=left;verticalAlign=top;spacingLeft=4;spacingRight=4;overflow=hidden;rotatable=0;points=[[0,0.5],[1,0.5]];portConstraint=eastwest;" parent="61" vertex="1">
                    <mxGeometry y="84" width="160" height="56" as="geometry"/>
                </mxCell>
                <mxCell id="67" value="1...*" style="text;html=1;align=center;verticalAlign=middle;resizable=0;points=[];autosize=1;strokeColor=none;fillColor=none;" parent="1" vertex="1">
                    <mxGeometry x="180" y="95" width="40" height="30" as="geometry"/>
                </mxCell>
                <mxCell id="69" value="*...1" style="text;html=1;align=center;verticalAlign=middle;resizable=0;points=[];autosize=1;strokeColor=none;fillColor=none;" parent="1" vertex="1">
                    <mxGeometry x="260" y="95" width="40" height="30" as="geometry"/>
                </mxCell>
                <mxCell id="70" value="*...1" style="text;html=1;align=center;verticalAlign=middle;resizable=0;points=[];autosize=1;strokeColor=none;fillColor=none;" parent="1" vertex="1">
                    <mxGeometry x="500" y="40" width="40" height="30" as="geometry"/>
                </mxCell>
                <mxCell id="74" value="" style="endArrow=none;html=1;exitX=0.5;exitY=0;exitDx=0;exitDy=0;" parent="1" source="19" edge="1">
                    <mxGeometry width="50" height="50" relative="1" as="geometry">
                        <mxPoint x="400" y="290" as="sourcePoint"/>
                        <mxPoint x="100" y="250" as="targetPoint"/>
                    </mxGeometry>
                </mxCell>
                <mxCell id="77" value="" style="endArrow=none;dashed=1;html=1;dashPattern=1 3;strokeWidth=2;entryX=-0.012;entryY=0.07;entryDx=0;entryDy=0;entryPerimeter=0;" parent="1" target="12" edge="1">
                    <mxGeometry width="50" height="50" relative="1" as="geometry">
                        <mxPoint x="180" y="470" as="sourcePoint"/>
                        <mxPoint x="230" y="420" as="targetPoint"/>
                    </mxGeometry>
                </mxCell>
                <mxCell id="78" value="1" style="text;html=1;align=center;verticalAlign=middle;resizable=0;points=[];autosize=1;strokeColor=none;fillColor=none;" parent="1" vertex="1">
                    <mxGeometry x="230" y="470" width="30" height="30" as="geometry"/>
                </mxCell>
                <mxCell id="80" value="" style="endArrow=none;html=1;entryX=1;entryY=0.5;entryDx=0;entryDy=0;" parent="1" target="57" edge="1">
                    <mxGeometry width="50" height="50" relative="1" as="geometry">
                        <mxPoint x="800" y="100" as="sourcePoint"/>
                        <mxPoint x="430" y="220" as="targetPoint"/>
                        <Array as="points"/>
                    </mxGeometry>
                </mxCell>
                <mxCell id="81" value="" style="endArrow=none;html=1;" parent="1" edge="1">
                    <mxGeometry width="50" height="50" relative="1" as="geometry">
                        <mxPoint x="800" y="320" as="sourcePoint"/>
                        <mxPoint x="800" y="100" as="targetPoint"/>
                    </mxGeometry>
                </mxCell>
                <mxCell id="82" value="" style="endArrow=none;html=1;" parent="1" edge="1">
                    <mxGeometry width="50" height="50" relative="1" as="geometry">
                        <mxPoint x="770" y="320" as="sourcePoint"/>
                        <mxPoint x="800" y="320" as="targetPoint"/>
                    </mxGeometry>
                </mxCell>
                <mxCell id="83" value="" style="endArrow=none;html=1;" parent="1" edge="1">
                    <mxGeometry width="50" height="50" relative="1" as="geometry">
                        <mxPoint x="100" y="280" as="sourcePoint"/>
                        <mxPoint x="290" y="280" as="targetPoint"/>
                    </mxGeometry>
                </mxCell>
            </root>
        </mxGraphModel>
    </diagram>
</mxfile>